<svg width="1920" height="1080" viewBox="0 0 1920 1080" fill="none" xmlns="http://www.w3.org/2000/svg">
<g clip-path="url(#clip0)">
<path d="M2044.43 30.9588L-143.52 -199.004L-258.501 894.971L1929.45 1124.93L2044.43 30.9588Z" fill="#FF9D00"/>
<path d="M-402.24 2262.41C957.177 2405.29 2175.03 1419.1 2317.91 59.6798C2460.79 -1299.74 1474.59 -2517.59 115.176 -2660.47C-1244.24 -2803.35 -2462.09 -1817.15 -2604.97 -457.736C-2747.85 901.681 -1761.66 2119.53 -402.24 2262.41Z" fill="#FF9D00" stroke="black" stroke-opacity="0.05" stroke-width="0.0416875"/>
<path d="M-387.868 2125.66C896.025 2260.61 2046.22 1329.2 2181.16 45.3029C2316.1 -1238.59 1384.7 -2388.78 100.802 -2523.73C-1183.09 -2658.67 -2333.29 -1727.26 -2468.23 -443.368C-2603.17 840.526 -1671.76 1990.72 -387.868 2125.66Z" fill="#FB8D17" stroke="black" stroke-opacity="0.05" stroke-width="0.0416875"/>
<path d="M-373.497 1988.91C834.874 2115.92 1917.41 1239.3 2044.41 30.9261C2171.42 -1177.44 1294.8 -2259.98 86.4286 -2386.98C-1121.94 -2513.99 -2204.48 -1637.37 -2331.48 -428.999C-2458.49 779.371 -1581.87 1861.91 -373.497 1988.91Z" fill="#F47D24" stroke="black" stroke-opacity="0.05" stroke-width="0.0416875"/>
<path d="M-359.107 1852.16C773.74 1971.23 1788.62 1149.39 1907.68 16.547C2026.75 -1116.3 1204.92 -2131.18 72.0724 -2250.24C-1060.77 -2369.31 -2075.65 -1547.48 -2194.72 -414.633C-2313.79 718.214 -1491.95 1733.09 -359.107 1852.16Z" fill="#ED6E2D" stroke="black" stroke-opacity="0.05" stroke-width="0.0416875"/>
<path d="M-344.752 1715.43C712.572 1826.56 1659.79 1059.52 1770.92 2.1925C1882.05 -1055.13 1115.01 -2002.35 57.6831 -2113.48C-999.641 -2224.61 -1946.86 -1457.57 -2057.99 -400.242C-2169.12 657.082 -1402.08 1604.3 -344.752 1715.43Z" fill="#E35F34" stroke="black" stroke-opacity="0.05" stroke-width="0.0416875"/>
<path d="M-330.38 1578.68C651.421 1681.87 1530.98 969.617 1634.17 -12.1835C1737.36 -993.984 1025.11 -1873.54 43.3094 -1976.74C-938.492 -2079.93 -1818.05 -1367.67 -1921.24 -385.873C-2024.43 595.928 -1312.18 1475.49 -330.38 1578.68Z" fill="#D85239" stroke="black" stroke-opacity="0.05" stroke-width="0.0416875"/>
<path d="M-315.989 1441.92C590.289 1537.18 1402.19 879.713 1497.44 -26.5644C1592.7 -932.842 935.233 -1744.74 28.9552 -1840C-877.323 -1935.25 -1689.22 -1277.79 -1784.48 -371.508C-1879.73 534.769 -1222.27 1346.67 -315.989 1441.92Z" fill="#CC453E" stroke="black" stroke-opacity="0.05" stroke-width="0.0416875"/>
<path d="M-301.633 1305.2C529.122 1392.51 1273.37 789.838 1360.68 -40.9172C1448 -871.672 845.321 -1615.91 14.5659 -1703.23C-816.189 -1790.55 -1560.43 -1187.87 -1647.75 -357.116C-1735.06 473.639 -1132.39 1217.88 -301.633 1305.2Z" fill="#BE3941" stroke="black" stroke-opacity="0.05" stroke-width="0.0416875"/>
<path d="M-287.261 1168.45C467.97 1247.83 1144.55 699.938 1223.93 -55.2934C1303.31 -810.525 755.424 -1487.11 0.192162 -1566.49C-755.039 -1645.87 -1431.62 -1097.98 -1511 -342.747C-1590.38 412.485 -1042.49 1089.07 -287.261 1168.45Z" fill="#B02F43" stroke="black" stroke-opacity="0.05" stroke-width="0.0416875"/>
<path d="M-272.889 1031.7C406.819 1103.14 1015.75 610.037 1087.19 -69.6711C1158.63 -749.379 665.527 -1358.31 -14.1815 -1429.75C-693.89 -1501.19 -1302.82 -1008.09 -1374.26 -328.379C-1445.7 351.329 -952.598 960.255 -272.889 1031.7Z" fill="#A02644" stroke="black" stroke-opacity="0.05" stroke-width="0.0416875"/>
<path d="M-258.501 894.944C345.684 958.446 886.951 520.136 950.454 -84.0494C1013.96 -688.235 575.647 -1229.5 -28.5383 -1293.01C-632.723 -1356.51 -1173.99 -918.197 -1237.49 -314.012C-1301 290.173 -862.686 831.441 -258.501 894.944Z" fill="#901E44" stroke="black" stroke-opacity="0.05" stroke-width="0.0416875"/>
<path d="M-244.148 758.195C284.514 813.76 758.123 430.239 813.688 -98.4229C869.252 -627.085 485.731 -1100.69 -42.9309 -1156.26C-571.593 -1211.82 -1045.2 -828.302 -1100.77 -299.64C-1156.33 229.022 -772.81 702.631 -244.148 758.195Z" fill="#801843" stroke="black" stroke-opacity="0.05" stroke-width="0.0416875"/>
<path d="M-229.757 621.442C223.382 669.069 629.333 340.336 676.96 -112.802C724.586 -565.941 395.854 -971.891 -57.2851 -1019.52C-510.424 -1067.14 -916.375 -738.413 -964.002 -285.274C-1011.63 167.865 -682.896 573.815 -229.757 621.442Z" fill="#6F1341" stroke="black" stroke-opacity="0.05" stroke-width="0.0416875"/>
<path d="M-215.386 484.693C162.23 524.382 500.523 250.438 540.212 -127.178C579.901 -504.794 305.957 -843.086 -71.6588 -882.775C-449.275 -922.464 -787.567 -648.52 -827.256 -270.904C-866.945 106.712 -593.001 445.004 -215.386 484.693Z" fill="#5E0F3D" stroke="black" stroke-opacity="0.05" stroke-width="0.0416875"/>
<path d="M-201.012 347.959C101.081 379.71 371.715 160.555 403.466 -141.537C435.218 -443.63 216.062 -714.264 -86.0303 -746.015C-388.123 -777.766 -658.757 -558.611 -690.508 -256.519C-722.259 45.5737 -503.104 316.208 -201.012 347.959Z" fill="#4E0C38" stroke="black" stroke-opacity="0.05" stroke-width="0.0416875"/>
<path d="M-186.66 211.212C39.9096 235.026 242.885 70.6593 266.698 -155.91C290.512 -382.48 126.146 -585.455 -100.424 -609.269C-326.993 -633.082 -529.969 -468.716 -553.782 -242.146C-577.595 -15.5767 -413.229 187.399 -186.66 211.212Z" fill="#3E0933" stroke="black" stroke-opacity="0.05" stroke-width="0.0416875"/>
<path d="M-172.286 74.4631C-21.24 90.3387 114.077 -19.2389 129.953 -170.285C145.828 -321.332 36.2507 -456.649 -114.796 -472.524C-265.842 -488.4 -401.159 -378.822 -417.034 -227.776C-432.91 -76.7295 -323.333 58.5875 -172.286 74.4631Z" fill="#2E062C" stroke="black" stroke-opacity="0.05" stroke-width="0.0416875"/>
</g>
<defs>
<clipPath id="clip0">
<rect width="2200" height="2200" fill="white" transform="translate(-86.0371 -746) rotate(6)"/>
</clipPath>
</defs>
</svg>
