<svg width="161" height="45" viewBox="0 0 161 45" fill="none" xmlns="http://www.w3.org/2000/svg">
<path d="M13.0057 18.589C12.9407 18.5634 12.863 18.7505 12.7725 19.1506C12.6963 19.5337 12.5913 20.0369 12.4576 20.6603C12.3226 21.2682 12.1795 21.963 12.0283 22.7447C11.8913 23.5096 11.7309 24.2765 11.5473 25.0454C11.3636 25.8143 11.1758 26.5366 10.984 27.2121C10.7907 27.8721 10.586 28.3998 10.3696 28.7951C10.1532 29.1905 9.93813 29.4211 9.72429 29.4868C9.5091 29.537 9.29478 29.3283 9.08135 28.8608C8.93776 28.6538 8.72879 28.327 8.45446 27.8804C8.19432 27.417 7.89051 26.9024 7.54302 26.3368C7.19552 25.7712 6.82974 25.1758 6.44567 24.5507C6.06159 23.9255 5.69649 23.3379 5.35036 22.7879C5.01843 22.2209 4.70752 21.7148 4.41761 21.2696C4.14327 20.8231 3.94209 20.4956 3.81407 20.2872C3.59732 19.9611 3.40227 19.7037 3.22891 19.515C3.06976 19.3093 2.83452 19.2201 2.52321 19.2473C2.61854 20.3369 2.78566 21.53 3.02458 22.8266C3.26349 24.1233 3.51155 25.4347 3.76876 26.7611C4.04153 28.0861 4.29737 29.397 4.53629 30.6936C4.77384 31.9746 4.94097 33.1677 5.03765 34.2729C5.11217 34.4075 5.1004 34.5419 5.00234 34.6759C4.91984 34.8086 4.78792 34.9143 4.60658 34.9929C4.44081 35.0701 4.24624 35.0871 4.02287 35.0439C3.81643 35.0149 3.63432 34.9054 3.47652 34.7153C3.21523 33.3422 3.01416 31.9404 2.87331 30.5097C2.74666 29.0621 2.61223 27.6152 2.47002 26.1689C2.3278 24.7227 2.13889 23.2806 1.90329 21.8425C1.66632 20.3889 1.32107 18.9526 0.867547 17.5336C0.827468 17.2547 0.859185 17.0794 0.962697 17.0076C1.06485 16.9203 1.20153 16.8691 1.37275 16.8541C1.74633 16.8214 2.08916 16.8856 2.40124 17.0465C2.72753 17.1905 3.02746 17.3916 3.30102 17.65C3.57322 17.8929 3.81701 18.1695 4.0324 18.4801C4.26335 18.7893 4.46822 19.0693 4.64703 19.3203C4.78926 19.5118 4.9884 19.8159 5.24445 20.2327L6.12437 21.6849C6.45357 22.2208 6.79328 22.7871 7.1435 23.3838C7.50792 23.9637 7.85474 24.5215 8.18394 25.0573C8.51178 25.5776 8.81151 26.0455 9.08313 26.4609C9.35338 26.8607 9.55894 27.1486 9.6998 27.3245C9.76207 27.319 9.8145 27.2909 9.85711 27.2401C9.89972 27.1893 9.95041 27.0516 10.0092 26.8269C10.0835 26.6008 10.171 26.2559 10.2716 25.7922C10.3877 25.3272 10.5434 24.6862 10.7385 23.8692C10.9337 23.0522 11.1728 22.0197 11.4557 20.7715C11.7386 19.5233 12.084 18.0031 12.4918 16.2107C12.5161 16.1302 12.6112 16.0513 12.7769 15.974C12.9427 15.8968 13.0956 15.852 13.2357 15.8398C13.3758 15.8275 13.4733 15.8661 13.5282 15.9554C13.5986 16.0433 13.6589 16.1949 13.7091 16.4101C13.965 17.7209 14.1951 19.0967 14.3996 20.5375C14.6183 21.9613 14.8623 23.4065 15.1318 24.873C15.3999 26.3239 15.6985 27.7643 16.0275 29.1942C16.372 30.6227 16.7883 31.9744 17.2763 33.2492L15.7204 34.0205L13.0057 18.589ZM25.2147 32.5547C25.1014 32.1568 24.9892 31.6804 24.8779 31.1255C24.7808 30.5536 24.676 29.9825 24.5633 29.412C24.4493 28.8259 24.3231 28.2802 24.1848 27.7747C24.062 27.2678 23.9007 26.8584 23.7009 26.5465C23.0487 28.2348 22.4599 29.5725 21.9346 30.5595C21.4079 31.531 20.9287 32.2395 20.4972 32.6851C20.0798 33.1137 19.7148 33.3339 19.4021 33.3455C19.0894 33.3572 18.8204 33.2396 18.5949 32.9927C18.3694 32.7458 18.1922 32.424 18.0634 32.0275C17.9488 31.614 17.8603 31.2297 17.7978 30.8744C17.7679 30.5319 17.8035 30.0426 17.9047 29.4064C18.0058 28.7701 18.1567 28.0746 18.3573 27.3199C18.5566 26.5496 18.8019 25.7674 19.0931 24.9734C19.4 24.178 19.7363 23.4506 20.1021 22.7912C20.4679 22.1318 20.8588 21.58 21.2748 21.1358C21.6908 20.6917 22.1245 20.4498 22.5759 20.4103C23.2357 20.2428 23.7389 20.3478 24.0856 20.7252C24.4466 21.0858 24.5667 21.7419 24.4461 22.6935C24.5359 23.7208 24.6518 24.5969 24.7936 25.3217C24.951 26.0451 25.1057 26.7373 25.2576 27.3985C25.4252 28.0583 25.5798 28.7506 25.7217 29.4753C25.8791 30.1987 26.0027 31.0741 26.0926 32.1014C26.1089 32.2882 26.0999 32.4537 26.0654 32.5979C26.0452 32.7251 25.8639 32.8037 25.5214 32.8337C25.4747 32.8378 25.4091 32.8043 25.3244 32.7333C25.2553 32.6609 25.2188 32.6014 25.2147 32.5547ZM23.0408 22.2283C22.8478 21.9942 22.6122 21.9913 22.3342 22.2195C22.0562 22.4477 21.7741 22.8096 21.4881 23.3052C21.2021 23.8008 20.9165 24.3904 20.6312 25.0741C20.346 25.7578 20.0847 26.4473 19.8476 27.1425C19.6104 27.8377 19.4094 28.4983 19.2446 29.1244C19.0784 29.735 18.9734 30.2383 18.9296 30.6342C18.9787 31.1946 19.0922 31.5062 19.2702 31.569C19.4469 31.6163 19.6489 31.5045 19.8761 31.2337C20.1034 30.9628 20.3522 30.5803 20.6227 30.0861C20.9087 29.5906 21.1764 29.0652 21.4259 28.5101C21.6909 27.9537 21.9339 27.4148 22.155 26.8935C22.3916 26.3709 22.5741 25.9472 22.7025 25.6222C22.814 25.2831 22.8964 24.97 22.9497 24.6831C23.003 24.3961 23.0421 24.126 23.067 23.8729C23.1061 23.6028 23.1141 23.3355 23.091 23.0709C23.0834 22.8049 23.0667 22.524 23.0408 22.2283ZM32.132 28.2557C32.0076 28.6274 31.8414 29.0576 31.6332 29.5463C31.4405 30.0337 31.1992 30.5018 30.9091 30.9507C30.6345 31.3982 30.3 31.7882 29.9057 32.1207C29.5113 32.4532 29.0572 32.642 28.5436 32.6869C28.3101 32.7073 28.1213 32.7003 27.9771 32.6659C27.8471 32.6145 27.7229 32.5391 27.6044 32.4397C27.5015 32.3389 27.3965 32.2148 27.2895 32.0673C27.198 31.9184 27.0819 31.7561 26.941 31.5802C26.8276 30.8216 26.725 30.0071 26.6331 29.1368C26.5555 28.2495 26.5253 27.366 26.5424 26.4862C26.5582 25.5908 26.641 24.7444 26.7908 23.947C26.9562 23.1483 27.2174 22.4589 27.5744 21.8787C27.947 21.2971 28.4344 20.8624 29.0366 20.5744C29.6388 20.2865 30.3924 20.2048 31.2973 20.3296C31.3059 19.8896 31.2626 19.3053 31.1675 18.5764C31.0724 17.8475 30.9582 17.0811 30.8252 16.2772C30.6921 15.4732 30.5617 14.7004 30.4341 13.9587C30.3051 13.2014 30.2117 12.5822 30.154 12.101C30.1417 11.9609 30.1951 11.8543 30.3142 11.7812C30.4475 11.6911 30.5913 11.6314 30.7455 11.6023C30.8998 11.5731 31.0477 11.5601 31.1892 11.5635C31.3462 11.5654 31.4494 11.5799 31.4988 11.6069C31.6352 13.5242 31.7922 15.4083 31.9698 17.2593C32.1461 19.0946 32.3223 20.93 32.4986 22.7654C32.689 24.5838 32.8788 26.3945 33.0679 28.1974C33.257 30.0003 33.4306 31.8045 33.5885 33.6101C33.6035 33.7813 33.6036 33.9617 33.5888 34.1512C33.591 34.3549 33.4675 34.4677 33.2185 34.4895C33.1251 34.4976 33.0289 34.4747 32.9301 34.4206C32.8326 34.382 32.7636 34.3097 32.7229 34.2034L32.132 28.2557ZM30.5356 21.5726C30.0503 21.5837 29.616 21.8177 29.2325 22.2748C28.8632 22.7149 28.5515 23.2754 28.2973 23.9564C28.0588 24.636 27.8808 25.3809 27.7635 26.1911C27.6448 26.9857 27.5941 27.7509 27.6114 28.4865C27.6429 29.2053 27.7455 29.8394 27.919 30.3889C28.1081 30.937 28.3828 31.2972 28.7429 31.4696C29.0854 31.4396 29.3929 31.2794 29.6655 30.9889C29.9367 30.6829 30.1785 30.3088 30.3907 29.8668C30.603 29.4247 30.7801 28.9387 30.9219 28.4087C31.0624 27.8631 31.1738 27.3436 31.2561 26.8502C31.354 26.3554 31.417 25.9107 31.4453 25.5161C31.4877 25.1046 31.5 24.7977 31.4823 24.5953C31.4687 24.4396 31.4547 24.1899 31.4403 23.8461C31.4259 23.5023 31.3882 23.1606 31.3271 22.8208C31.266 22.4811 31.1694 22.1837 31.0373 21.9286C30.9207 21.6722 30.7535 21.5535 30.5356 21.5726ZM35.1932 27.2115C35.1168 27.2339 35.0021 27.2675 34.8491 27.3122C34.6962 27.357 34.5334 27.379 34.3609 27.3785C34.1883 27.3779 34.0363 27.3441 33.905 27.2772C33.7581 27.2116 33.6765 27.0854 33.6601 26.8986C33.6506 26.7897 33.6671 26.7098 33.7097 26.659C33.7523 26.6082 33.824 26.5314 33.9248 26.4285C34.2428 26.1183 34.4994 25.7351 34.6948 25.2789C34.9043 24.8057 35.0885 24.3112 35.2473 23.7954C35.4047 23.264 35.5705 22.7397 35.7449 22.2226C35.9334 21.6885 36.1579 21.2062 36.4182 20.7756C36.6785 20.345 37.0157 19.9861 37.4298 19.6989C37.8438 19.4118 38.3706 19.248 39.0102 19.2078C39.2748 19.1846 39.576 19.221 39.9137 19.3169C40.2515 19.4129 40.57 19.5575 40.8693 19.7509C41.1672 19.9288 41.4224 20.1574 41.6351 20.4368C41.8477 20.7162 41.9697 21.0349 42.0011 21.3929C42.0898 21.5106 42.0276 21.6964 41.8146 21.9504C41.6171 22.2029 41.336 22.4863 40.9714 22.8005C40.6054 23.0992 40.1863 23.4182 39.7141 23.7575C39.2561 24.0799 38.8122 24.3853 38.3826 24.6739C37.953 24.9624 37.5752 25.2151 37.2491 25.4318C36.923 25.6486 36.7095 25.8084 36.6087 25.9113C36.5445 26.0738 36.4979 26.2582 36.4689 26.4647C36.4399 26.6711 36.418 26.8691 36.4032 27.0586C36.4027 27.2312 36.4014 27.396 36.3994 27.553C36.4117 27.6931 36.4212 27.8021 36.428 27.8799C36.4539 28.1756 36.467 28.5039 36.4671 28.8646C36.4829 29.224 36.5284 29.565 36.6037 29.8878C36.6932 30.1937 36.8487 30.4467 37.0701 30.647C37.2901 30.8316 37.6414 30.9028 38.124 30.8606C38.6376 30.8157 39.1093 30.6489 39.5389 30.3604C39.9671 30.0563 40.3595 29.7004 40.7159 29.2928C41.0724 28.8852 41.3872 28.4498 41.6604 27.9868C41.9491 27.5223 42.2017 27.0924 42.4181 26.6971C42.6486 26.2848 42.8542 25.9453 43.0348 25.6785C43.2153 25.4118 43.3756 25.2722 43.5157 25.26C43.6714 25.2464 43.8376 25.2632 44.0142 25.3105C44.2051 25.3408 44.3094 25.4572 44.3271 25.6595C44.3516 25.9397 44.2641 26.2846 44.0647 26.6942C43.8808 27.1024 43.6212 27.5407 43.2857 28.0092C42.9659 28.4764 42.5837 28.949 42.1393 29.4271C41.7091 29.8882 41.2677 30.3111 40.8152 30.6957C40.3612 31.0648 39.9103 31.3788 39.4624 31.6375C39.0131 31.8807 38.6095 32.018 38.2515 32.0493C37.551 32.1106 37.0068 31.9857 36.6189 31.6746C36.2309 31.3634 35.9366 30.9579 35.736 30.4578C35.551 29.9564 35.4255 29.4184 35.3596 28.8439C35.3078 28.2524 35.2524 27.7083 35.1932 27.2115ZM38.9378 20.5316C38.6732 20.5548 38.4046 20.7116 38.132 21.0021C37.858 21.277 37.6051 21.6128 37.3731 22.0095C37.1554 22.3893 36.978 22.7813 36.8408 23.1854C36.7178 23.5726 36.6672 23.8907 36.689 24.1398C36.9225 24.1194 37.2497 24.0045 37.6705 23.7951C38.1056 23.5688 38.5294 23.3043 38.9421 23.0016C39.3548 22.6988 39.7117 22.3853 40.0127 22.0609C40.3137 21.7366 40.4526 21.4421 40.4294 21.1775C40.4172 21.0374 40.3525 20.9254 40.2354 20.8416C40.1182 20.7577 39.9791 20.6915 39.818 20.6428C39.6725 20.5928 39.5205 20.5591 39.3621 20.5415C39.2038 20.524 39.0623 20.5207 38.9378 20.5316ZM57.1239 30.21C56.9385 28.9871 56.793 27.6823 56.6874 26.2956C56.5973 24.9076 56.5055 23.4099 56.4119 21.8025C56.3183 20.1952 56.2054 18.4562 56.0731 16.5857C55.955 14.6981 55.7831 12.6428 55.5572 10.4197C55.7284 10.4047 55.9067 10.3812 56.0922 10.3493C56.2762 10.3019 56.439 10.2798 56.5804 10.2831C56.7375 10.285 56.8661 10.3208 56.9663 10.3905C57.082 10.4588 57.1488 10.5941 57.1665 10.7965C57.2169 11.3724 57.2521 12.0437 57.2721 12.8105C57.3063 13.5604 57.3318 14.3895 57.3485 15.2977C57.3639 16.1904 57.3932 17.1525 57.4364 18.1839C57.4951 19.2139 57.5742 20.2971 57.6736 21.4334C58.1558 20.6697 58.6106 20.0417 59.038 19.5495C59.4655 19.0572 59.8778 18.6604 60.2749 18.359C60.6707 18.0421 61.0682 17.8347 61.4674 17.7371C61.8653 17.6238 62.2602 17.5658 62.6521 17.5629C63.1035 17.5234 63.4802 17.6159 63.7821 17.8404C64.0997 18.0636 64.3526 18.3552 64.5409 18.7151C64.7293 19.0751 64.875 19.4858 64.9781 19.9473C65.0799 20.3933 65.1498 20.8342 65.188 21.27C65.2152 21.5813 65.2211 21.918 65.2058 22.2801C65.2046 22.6253 65.1523 23.0141 65.049 23.4467C64.9457 23.8792 64.7659 24.3341 64.5097 24.8114C64.2676 25.2717 63.9115 25.7734 63.4415 26.3164C62.9714 26.8595 62.3626 27.4303 61.615 28.029C60.883 28.6263 59.9812 29.2542 58.9095 29.9126C58.5455 30.0542 58.2481 30.1508 58.0173 30.2024C57.8008 30.237 57.6224 30.2605 57.4823 30.2727C57.3565 30.2681 57.2617 30.2607 57.1981 30.2505C57.15 30.2391 57.1253 30.2255 57.1239 30.21ZM58.0054 28.7212C58.0791 28.6677 58.2804 28.5482 58.6092 28.3626C58.9367 28.1614 59.3223 27.9081 59.7661 27.6026C60.2099 27.2971 60.6879 26.9338 61.2 26.5125C61.7121 26.0913 62.1721 25.6119 62.5799 25.0743C63.0033 24.5353 63.3512 23.9403 63.6236 23.289C63.896 22.6378 64.0307 21.9359 64.0276 21.1833C64.0085 20.9654 63.9569 20.7346 63.8729 20.491C63.7888 20.2474 63.6672 20.0228 63.5081 19.8171C63.3645 19.6101 63.1854 19.4454 62.9708 19.323C62.7548 19.1851 62.5067 19.1284 62.2265 19.1529C61.6506 19.2033 61.1194 19.4066 60.633 19.7628C60.1622 20.1177 59.737 20.547 59.3576 21.0508C58.9782 21.5545 58.6489 22.0931 58.3697 22.6665C58.0891 23.2243 57.8674 23.7377 57.7045 24.2068L58.0054 28.7212ZM73.3338 28.8624L66.4663 19.7465C66.4494 19.7323 66.429 19.6792 66.4053 19.5872C66.3802 19.4796 66.3649 19.3947 66.3595 19.3324C66.3418 19.1301 66.3579 18.9561 66.4079 18.8106C66.4721 18.6481 66.6521 18.5539 66.9479 18.5281C67.0101 18.5226 67.1225 18.552 67.285 18.6162C67.4461 18.6649 67.5449 18.7189 67.5815 18.7785C67.9716 19.2933 68.3749 19.8697 68.7915 20.5077C69.2236 21.1444 69.6635 21.7803 70.1112 22.4156C70.5745 23.0495 71.0513 23.6587 71.5416 24.2432C72.0305 24.8121 72.5353 25.2934 73.056 25.687L72.8156 16.4854C72.8312 16.4841 72.8701 16.4807 72.9323 16.4752C73.0088 16.4529 73.0626 16.4403 73.0937 16.4376C73.2338 16.4253 73.376 16.4364 73.5201 16.4709C73.663 16.4897 73.773 16.5821 73.8502 16.7478C73.9148 17.3068 73.9754 17.9995 74.032 18.8258C74.1042 19.6508 74.1629 20.5005 74.208 21.3749C74.2687 22.2479 74.3189 23.0905 74.3586 23.9026C74.4124 24.6978 74.4527 25.3374 74.4794 25.8213C74.491 26.134 74.5008 26.6036 74.5085 27.2304C74.5319 27.8557 74.5465 28.5602 74.5523 29.344C74.575 30.1419 74.5856 30.9801 74.5841 31.8586C74.5981 32.7357 74.608 33.5661 74.6138 34.3498C74.6196 35.1336 74.6264 35.8388 74.6342 36.4655C74.6434 37.1077 74.6446 37.5703 74.638 37.8532L73.4239 37.9595L73.3338 28.8624ZM86.4016 23.6019C86.358 23.1038 86.3455 22.4226 86.364 21.5583C86.398 20.6927 86.4733 19.7607 86.5899 18.7624C86.722 17.7627 86.9002 16.7511 87.1243 15.7277C87.3471 14.6887 87.6332 13.7461 87.9827 12.8999C88.3477 12.0524 88.7802 11.3479 89.28 10.7866C89.7954 10.2239 90.3878 9.9133 91.0571 9.85474C91.4463 9.82069 91.7793 9.86214 92.0561 9.97908C92.3486 10.0947 92.5913 10.2695 92.7843 10.5035C92.9915 10.7207 93.1477 10.9815 93.2527 11.286C93.372 11.5736 93.4473 11.8964 93.4786 12.2544C93.1984 12.2789 92.9666 12.2286 92.7831 12.1035C92.5983 11.9628 92.4283 11.813 92.2733 11.654C92.1182 11.4951 91.9567 11.3523 91.7888 11.2259C91.6351 11.0825 91.4337 11.0217 91.1846 11.0435C90.6865 11.087 90.2485 11.3685 89.8704 11.8878C89.491 12.3915 89.1621 13.0242 88.8836 13.7857C88.6052 14.5472 88.3732 15.391 88.1875 16.3169C88.0005 17.2273 87.8511 18.1187 87.7392 18.9912C87.6415 19.8467 87.5766 20.6288 87.5445 21.3374C87.5111 22.0304 87.5093 22.5482 87.5393 22.8906C87.5788 23.342 87.6409 23.7836 87.7257 24.2154C87.8092 24.6315 87.9437 25.004 88.1294 25.3329C88.315 25.6617 88.5652 25.9221 88.88 26.1142C89.1934 26.2906 89.6226 26.3551 90.1674 26.3074C90.79 26.2529 91.3871 25.9968 91.9588 25.539C92.546 25.0798 93.079 24.5391 93.5579 23.9169C94.0353 23.2791 94.44 22.6163 94.772 21.9285C95.1026 21.2251 95.3317 20.6169 95.4593 20.1038C95.4891 20.0855 95.5585 20.0716 95.6674 20.0621C95.775 20.037 95.8444 20.0231 95.8755 20.0203C96.0623 20.004 96.2356 20.0124 96.3953 20.0455C96.5692 20.0616 96.6671 20.1942 96.6889 20.4433C96.6391 20.9495 96.4675 21.4978 96.1741 22.0881C95.8793 22.6629 95.5216 23.2353 95.1009 23.8054C94.6802 24.3755 94.2095 24.9107 93.6886 25.4112C93.1677 25.9116 92.6563 26.3406 92.1543 26.6982C91.6523 27.0558 91.1804 27.3089 90.7385 27.4573C90.298 27.6213 89.9315 27.6455 89.6391 27.53C89.1254 27.5749 88.6696 27.4736 88.2715 27.2261C87.8876 26.9617 87.5605 26.6296 87.2903 26.2297C87.0356 25.8285 86.8327 25.3914 86.6815 24.9184C86.5303 24.4454 86.437 24.0066 86.4016 23.6019ZM98.7741 26.2602C98.6856 25.2485 98.569 24.1843 98.4242 23.0676C98.2951 21.9496 98.1574 20.8245 98.0113 19.6923C97.8794 18.5432 97.7729 17.4154 97.6918 16.3089C97.6106 15.2023 97.5901 14.1611 97.6302 13.1852C97.66 13.1669 97.7293 13.153 97.8383 13.1434C97.9615 13.117 98.0464 13.1017 98.0931 13.0976C98.311 13.0785 98.4856 13.1025 98.617 13.1694C98.7625 13.2194 98.8455 13.3612 98.8659 13.5946C98.9463 14.513 99.0263 15.5177 99.1061 16.6086C99.2 17.6826 99.2883 18.7807 99.3707 19.9028C99.4674 21.0079 99.5634 22.1053 99.6588 23.1949C99.7541 24.2845 99.8561 25.2715 99.9649 26.156C100.004 26.4193 99.9641 26.5953 99.8464 26.684C99.7456 26.7869 99.6096 26.8459 99.4384 26.8609C99.2516 26.8772 99.0919 26.8441 98.9592 26.7616C98.8278 26.6947 98.7661 26.5275 98.7741 26.2602ZM96.7979 9.58776C96.7815 9.40097 96.8329 9.271 96.952 9.19784C97.0711 9.12469 97.2084 9.0813 97.3641 9.06768C97.6754 9.04044 97.8788 9.1246 97.9743 9.32014C98.0699 9.51568 98.1292 9.74576 98.1524 10.0104C98.074 10.1898 97.9681 10.3245 97.8348 10.4146C97.7002 10.4891 97.5537 10.5176 97.3953 10.5001C97.2511 10.4657 97.1177 10.3754 96.9952 10.2293C96.8882 10.0818 96.8224 9.86794 96.7979 9.58776ZM102.571 26.0927C102.216 24.0064 101.876 21.9186 101.552 19.8295C101.243 17.7235 100.911 15.541 100.556 13.2821C100.523 12.9085 100.709 12.704 101.114 12.6686L101.301 12.6523C101.348 12.6482 101.407 12.7057 101.481 12.8248C101.554 12.9438 101.636 13.1719 101.729 13.5089C101.835 13.8289 101.957 14.328 102.095 15.0061C102.247 15.6672 102.433 16.5371 102.653 17.6158C102.873 18.6945 103.132 20.0443 103.43 21.665C103.665 20.578 103.832 19.5282 103.931 18.5156C104.031 17.5031 104.193 16.5792 104.418 15.7439C104.642 14.8931 104.991 14.1332 105.466 13.4643C105.956 12.794 106.694 12.2667 107.68 11.8824C108.248 11.9268 108.73 12.2298 109.124 12.7913C109.517 13.3372 109.852 14.0294 110.129 14.8678C110.406 15.7062 110.628 16.6279 110.795 17.6329C110.959 18.6222 111.09 19.5754 111.186 20.4924C111.282 21.4095 111.362 22.2337 111.426 22.9653C111.488 23.6813 111.549 24.1936 111.607 24.5022C111.571 24.6308 111.511 24.7459 111.426 24.8475C111.34 24.9491 111.238 25.0286 111.117 25.0862C111.011 25.1269 110.903 25.1442 110.792 25.1382C110.681 25.1166 110.572 25.0398 110.466 24.9079C110.451 24.7367 110.405 24.3878 110.328 23.8613C110.25 23.3348 110.158 22.7234 110.05 22.027C109.94 21.3151 109.82 20.5649 109.688 19.7765C109.571 18.9712 109.458 18.2203 109.35 17.524C109.256 16.8107 109.17 16.1908 109.093 15.6643C109.016 15.1378 108.962 14.7896 108.931 14.6197C108.554 14.0724 108.198 13.7741 107.865 13.7249C107.547 13.6743 107.236 13.8034 106.934 14.1122C106.647 14.4196 106.381 14.8742 106.136 15.476C105.89 16.0778 105.667 16.7561 105.467 17.5108C105.265 18.25 105.082 19.0267 104.918 19.841C104.754 20.6552 104.619 21.4434 104.513 22.2056C104.406 22.9521 104.316 23.6344 104.245 24.2523C104.188 24.8533 104.158 25.3187 104.155 25.6483C104.118 25.7613 104.027 25.8791 103.88 26.0017C103.748 26.1073 103.599 26.191 103.432 26.2527C103.28 26.313 103.118 26.3429 102.946 26.3423C102.787 26.3248 102.662 26.2416 102.571 26.0927ZM112.282 7.48016C112.582 7.14026 112.828 6.99326 113.02 7.03918C113.228 7.08374 113.394 7.28094 113.519 7.63078C113.644 7.98061 113.739 8.44281 113.805 9.01737C113.871 9.59194 113.92 10.2464 113.953 10.9807C114 11.6981 114.028 12.4642 114.037 13.279C114.044 14.0783 114.058 14.8691 114.08 15.6515C114.1 16.4183 114.133 17.1526 114.178 17.8544C114.224 18.5562 114.3 19.1612 114.408 19.6695L114.478 19.6633C114.509 19.6606 114.531 19.6508 114.546 19.6339C115.284 18.7536 115.933 17.8342 116.492 16.8756C117.052 15.9169 117.553 15.0182 117.997 14.1794C118.44 13.3251 118.83 12.5851 119.168 11.9596C119.521 11.3327 119.859 10.8953 120.182 10.6474C120.416 10.627 120.614 10.6489 120.776 10.7131C120.954 10.776 121.056 10.9475 121.08 11.2277C121.083 11.2588 121.08 11.314 121.071 11.3931C121.076 11.4554 121.081 11.5021 121.083 11.5332C120.764 12.3611 120.406 13.2002 120.01 14.0505C119.612 14.8852 119.174 15.6999 118.694 16.4947C118.215 17.2895 117.685 18.0495 117.106 18.7747C116.541 19.4985 115.917 20.1647 115.234 20.7735C115.235 20.7891 115.23 20.8209 115.218 20.869C115.221 20.9001 115.223 20.9235 115.225 20.939C115.238 21.0947 115.378 21.255 115.643 21.42C115.924 21.5836 116.267 21.734 116.671 21.8712C117.09 22.007 117.549 22.1394 118.046 22.2685C118.56 22.3961 119.055 22.5018 119.533 22.5854C120.026 22.6677 120.479 22.7301 120.89 22.7725C121.317 22.8136 121.648 22.8239 121.881 22.8035C121.887 22.8657 121.897 22.9825 121.912 23.1537C121.942 23.3235 121.95 23.5032 121.935 23.6927C121.921 23.8823 121.881 24.0582 121.817 24.2207C121.751 24.3676 121.633 24.4485 121.462 24.4635L121.368 24.4717C121.337 24.4744 121.313 24.4687 121.296 24.4545L114.384 22.3536C114.448 23.2734 114.452 24.026 114.393 24.6114C114.333 25.1813 114.237 25.6054 114.104 25.8836C113.989 26.176 113.845 26.322 113.672 26.3214C113.515 26.3194 113.364 26.2072 113.219 25.9846L112.282 7.48016ZM123.121 21.3775C122.949 20.671 122.834 19.9831 122.776 19.3138C122.716 18.6289 122.694 17.9328 122.711 17.2256C122.743 16.5169 122.804 15.7823 122.894 15.0215C122.999 14.2438 123.122 13.4096 123.263 12.5188C123.248 12.3476 123.282 12.1879 123.363 12.0396C123.442 11.8758 123.556 11.7404 123.704 11.6334C123.85 11.5108 124.006 11.4109 124.171 11.3336C124.337 11.2564 124.498 11.211 124.654 11.1974C124.996 11.1674 125.317 11.2491 125.616 11.4425C125.915 11.6359 126.188 11.8787 126.433 12.171C126.693 12.4619 126.917 12.7795 127.104 13.1239C127.305 13.4514 127.471 13.7349 127.602 13.9744C127.774 14.5083 127.914 15.1234 128.022 15.8198C128.145 16.4992 128.214 17.199 128.23 17.9191C128.245 18.6392 128.198 19.3569 128.089 20.0724C127.977 20.7722 127.791 21.4237 127.53 22.0269C127.269 22.6301 126.907 23.148 126.443 23.5807C125.994 24.0121 125.439 24.3037 124.778 24.4557C124.42 24.487 124.138 24.3941 123.93 24.177C123.722 23.9442 123.556 23.6608 123.433 23.3265C123.323 22.9753 123.245 22.6214 123.199 22.2647C123.167 21.9067 123.141 21.611 123.121 21.3775ZM124.306 21.2033C124.319 21.3589 124.332 21.5068 124.344 21.6469C124.372 21.7856 124.4 21.9243 124.428 22.0631C124.47 22.1849 124.513 22.3222 124.558 22.4752C124.617 22.6112 124.686 22.7698 124.764 22.9512L124.904 22.9389C125.278 22.9062 125.586 22.7538 125.829 22.4816C126.072 22.2094 126.27 21.8706 126.422 21.4651C126.574 21.044 126.691 20.5868 126.773 20.0934C126.854 19.5844 126.905 19.0937 126.926 18.6213C126.962 18.1319 126.97 17.6842 126.95 17.2781C126.944 16.8552 126.931 16.5191 126.909 16.2701L126.868 15.8031C126.85 15.6008 126.823 15.3757 126.785 15.1281C126.747 14.8648 126.692 14.6029 126.623 14.3424C126.567 14.0649 126.491 13.8207 126.394 13.6095C126.296 13.3829 126.178 13.2049 126.041 13.0757C125.905 12.9465 125.735 12.8908 125.533 12.9085C125.181 12.8295 124.887 12.8787 124.651 13.0562C124.432 13.2323 124.26 13.5139 124.137 13.9011C124.028 14.2713 123.958 14.7245 123.927 15.2605C123.895 15.7966 123.9 16.3844 123.94 17.0239C123.98 17.6635 124.032 18.3412 124.094 19.0573C124.172 19.7719 124.243 20.4872 124.306 21.2033ZM133.714 23.0622C133.616 22.8355 133.452 22.4813 133.221 21.9995C132.991 21.5178 132.732 20.9758 132.444 20.3736C132.156 19.7714 131.849 19.1317 131.523 18.4544C131.197 17.7771 130.89 17.1373 130.602 16.5351C130.314 15.9329 130.055 15.391 129.825 14.9092C129.594 14.4274 129.422 14.0661 129.307 13.8253C129.201 13.6933 129.102 13.5452 129.009 13.3808C128.93 13.1994 128.883 13.0231 128.868 12.8519C128.852 12.6651 128.877 12.4983 128.942 12.3514C129.008 12.2045 129.124 12.0924 129.289 12.0152C129.461 12.0002 129.614 12.0495 129.749 12.1632C129.899 12.2599 130.012 12.3833 130.088 12.5335L133.375 19.1864C133.372 18.9671 133.377 18.5745 133.39 18.0087C133.402 17.4274 133.411 16.8149 133.417 16.1712C133.424 15.5276 133.426 14.9235 133.423 14.3591C133.435 13.7777 133.447 13.3767 133.459 13.1561C133.461 12.9991 133.461 12.8187 133.459 12.615C133.457 12.4113 133.471 12.214 133.501 12.0231C133.547 11.8309 133.619 11.6599 133.715 11.5103C133.828 11.3593 133.993 11.2743 134.211 11.2552C134.366 11.2416 134.477 11.2477 134.542 11.2733C134.622 11.2977 134.716 11.3836 134.823 11.5311L139.976 18.7971L139.285 10.9054C139.737 10.8659 140.058 10.9554 140.25 11.1739C140.456 11.3755 140.589 11.6383 140.648 11.9625C140.724 12.2853 140.754 12.6355 140.74 13.0132C140.726 13.3908 140.74 13.7268 140.781 14.0212C140.791 14.1302 140.819 14.363 140.866 14.7196C140.913 15.0763 140.965 15.4874 141.021 15.953C141.093 16.4172 141.161 16.9211 141.224 17.4645C141.286 17.9924 141.345 18.4891 141.401 18.9547C141.473 19.419 141.533 19.8294 141.579 20.1861C141.626 20.5427 141.655 20.7755 141.664 20.8845C141.8 21.1862 141.811 21.3971 141.696 21.5169C141.595 21.6198 141.442 21.6646 141.237 21.6512C141.032 21.6377 140.822 21.5698 140.608 21.4474C140.393 21.325 140.247 21.181 140.17 21.0152L134.7 13.3534C134.797 15.7133 134.859 17.6841 134.888 19.2658C134.916 20.8474 134.931 22.1793 134.932 23.2615C134.9 23.4368 134.83 23.537 134.723 23.5621C134.615 23.5872 134.497 23.5819 134.368 23.5461C134.254 23.4934 134.137 23.4173 134.019 23.3178C133.9 23.2184 133.799 23.1332 133.714 23.0622ZM149.333 22.2134L142.465 13.0975C142.448 13.0833 142.428 13.0302 142.404 12.9382C142.379 12.8306 142.364 12.7456 142.358 12.6834C142.341 12.481 142.357 12.3071 142.407 12.1615C142.471 11.9991 142.651 11.9049 142.947 11.879C143.009 11.8736 143.121 11.903 143.284 11.9672C143.445 12.0158 143.544 12.0699 143.58 12.1295C143.97 12.6443 144.374 13.2207 144.79 13.8587C145.222 14.4953 145.662 15.1313 146.11 15.7666C146.573 16.4005 147.05 17.0097 147.54 17.5942C148.029 18.1631 148.534 18.6444 149.055 19.038L148.814 9.83642C148.83 9.83506 148.869 9.83165 148.931 9.8262C149.008 9.80383 149.061 9.79128 149.093 9.78856C149.233 9.7763 149.375 9.78739 149.519 9.82183C149.662 9.84071 149.772 9.93303 149.849 10.0988C149.914 10.6578 149.974 11.3505 150.031 12.1768C150.103 13.0018 150.162 13.8515 150.207 14.7259C150.267 15.5989 150.318 16.4415 150.357 17.2536C150.411 18.0488 150.451 18.6884 150.478 19.1723C150.49 19.4849 150.5 19.9546 150.507 20.5813C150.531 21.2067 150.545 21.9112 150.551 22.6949C150.574 23.4929 150.584 24.3311 150.583 25.2095C150.597 26.0867 150.607 26.9171 150.613 27.7008C150.618 28.4845 150.625 29.1897 150.633 29.8164C150.642 30.4587 150.643 30.9213 150.637 31.2042L149.423 31.3104L149.333 22.2134ZM158.018 21.4535L151.151 12.3376C151.134 12.3234 151.113 12.2703 151.09 12.1783C151.065 12.0707 151.049 11.9858 151.044 11.9235C151.026 11.7211 151.042 11.5472 151.092 11.4017C151.156 11.2392 151.336 11.145 151.632 11.1191C151.694 11.1137 151.807 11.1431 151.969 11.2073C152.13 11.2559 152.229 11.31 152.266 11.3696C152.656 11.8844 153.059 12.4608 153.476 13.0988C153.908 13.7354 154.348 14.3714 154.796 15.0067C155.259 15.6406 155.736 16.2498 156.226 16.8343C156.715 17.4032 157.22 17.8845 157.74 18.2781L157.5 9.07653C157.516 9.07517 157.554 9.07176 157.617 9.06632C157.693 9.04394 157.747 9.03139 157.778 9.02867C157.918 9.01641 158.06 9.0275 158.204 9.06194C158.347 9.08082 158.457 9.17314 158.535 9.33892C158.599 9.89791 158.66 10.5906 158.716 11.4169C158.789 12.2419 158.847 13.0916 158.892 13.966C158.953 14.839 159.003 15.6816 159.043 16.4937C159.097 17.2889 159.137 17.9285 159.164 18.4124C159.175 18.725 159.185 19.1947 159.193 19.8214C159.216 20.4468 159.231 21.1513 159.237 21.935C159.259 22.733 159.27 23.5712 159.268 24.4496C159.282 25.3268 159.292 26.1572 159.298 26.9409C159.304 27.7246 159.311 28.4299 159.319 29.0566C159.328 29.6988 159.329 30.1614 159.322 30.4443L158.108 30.5505L158.018 21.4535Z" fill="#FFFAFA" fill-opacity="0.87"/>
</svg>
